# xmcd
#
# Track frame offsets: 
#        150
#        16282
#        34331
#        51925
#        65827
#        86480
#        100536
#        119745
#
# Disc length: 1801 seconds
#
# Revision: 0
# Processed by: cddbd v1.5.2PL0 Copyright (c) Steve Scherf et al.
# Submitted via: ExactAudioCopy v0.99pb4
#
DISCID=6a070708
DTITLE=Corinne Bailey Rae - An Introduction
DYEAR=2011
DGENRE=R&B
TTITLE0=Put Your Records On
TTITLE1=Like A Star
TTITLE2=Daydreaming
TTITLE3=Steady As She Goes
TTITLE4=Take Your Time
TTITLE5=I'd Do It All Again
TTITLE6=Closer
TTITLE7=Is This Love
EXTD=
EXTT0=
EXTT1=
EXTT2=
EXTT3=
EXTT4=
EXTT5=
EXTT6=
EXTT7=
PLAYORDER=
